<?xml version="1.0" standalone="no"?>
<!DOCTYPE svg PUBLIC "-//W3C//DTD SVG 20010904//EN"
 "http://www.w3.org/TR/2001/REC-SVG-20010904/DTD/svg10.dtd">
<svg version="1.0" xmlns="http://www.w3.org/2000/svg"
 width="386.000000pt" height="329.000000pt" viewBox="0 0 386.000000 329.000000"
 preserveAspectRatio="xMidYMid meet">

<g transform="translate(0.000000,329.000000) scale(0.100000,-0.100000)"
fill="#000000" stroke="none">
<path d="M2422 2648 c-11 -18 -36 -59 -55 -90 -20 -32 -34 -58 -31 -58 2 0 16
19 31 43 66 105 77 118 91 112 12 -4 13 -3 2 10 -16 20 -15 20 -38 -17z"/>
<path d="M2470 2632 c0 -5 9 -20 21 -33 48 -56 109 -150 104 -160 -4 -5 -2 -8
3 -7 5 2 19 -8 31 -22 33 -37 15 -6 -53 90 -73 103 -106 145 -106 132z"/>
<path d="M2263 2393 c-33 -54 -83 -136 -112 -182 -29 -45 -48 -80 -43 -77 9 5
185 284 211 334 28 52 0 15 -56 -75z"/>
<path d="M2403 2445 c-18 -19 -29 -35 -26 -35 4 0 -7 -15 -23 -32 -17 -18 -44
-52 -61 -75 -16 -24 -32 -41 -34 -38 -3 2 -5 -5 -6 -16 -1 -12 16 4 44 43 26
35 68 89 95 121 43 52 53 67 45 67 -1 0 -17 -16 -34 -35z"/>
<path d="M2452 2472 c9 -22 84 -122 92 -122 5 0 3 7 -4 15 -10 12 -10 18 1 33
13 16 12 16 -4 3 -12 -9 -21 -11 -25 -5 -4 6 -17 27 -30 47 -21 33 -39 51 -30
29z"/>
<path d="M2672 2344 c12 -20 35 -51 51 -68 l30 -31 -22 30 c-12 17 -33 47 -47
68 -31 47 -40 48 -12 1z"/>
<path d="M2550 2331 c0 -6 4 -13 10 -16 6 -3 7 1 4 9 -7 18 -14 21 -14 7z"/>
<path d="M1097 2168 c-52 -84 -158 -254 -236 -377 -78 -123 -140 -225 -138
-227 2 -2 131 3 288 11 156 8 322 15 369 15 114 2 75 15 -65 23 -289 17 -436
31 -432 41 3 6 38 58 79 116 40 58 109 156 153 218 43 61 81 112 84 111 4 0
76 -108 161 -241 158 -245 498 -770 724 -1115 l126 -192 62 4 c35 3 216 12
403 20 187 9 365 17 395 18 111 5 3 15 -330 31 -184 9 -367 20 -407 23 l-72 6
-203 320 c-208 329 -332 524 -663 1047 -104 165 -193 300 -196 300 -4 0 -49
-69 -102 -152z"/>
<path d="M2613 2239 c26 -35 67 -93 92 -129 96 -142 117 -170 126 -170 5 0 1
10 -11 22 -11 12 -20 25 -20 29 0 3 -13 21 -29 40 -22 25 -27 37 -19 46 8 10
7 12 -4 8 -19 -8 -89 99 -82 123 5 13 4 14 -4 3 -7 -10 -17 -3 -41 32 -17 25
-37 49 -43 53 -6 4 10 -21 35 -57z"/>
<path d="M2756 2228 c5 -7 27 -41 51 -75 42 -62 51 -79 35 -69 -4 2 -8 -4 -8
-15 0 -18 2 -18 12 -5 10 14 13 14 29 -3 10 -12 14 -25 9 -33 -4 -7 -4 -10 1
-6 4 4 15 2 24 -5 9 -6 4 4 -10 23 -14 19 -51 72 -83 118 -32 45 -60 82 -62
82 -3 0 -2 -6 2 -12z"/>
<path d="M2217 2204 c-10 -14 -23 -21 -29 -18 -7 5 -8 2 -3 -5 4 -7 -1 -22
-12 -34 -25 -27 -66 -87 -60 -87 6 0 129 161 125 165 -1 2 -11 -8 -21 -21z"/>
<path d="M2048 2048 c-31 -49 -43 -77 -37 -84 6 -8 2 -20 -11 -35 -21 -27 -26
-19 -9 14 6 12 7 18 2 12 -15 -16 -55 -85 -49 -85 3 0 -5 -11 -17 -24 -12 -14
-39 -53 -60 -88 -20 -35 -27 -50 -15 -34 128 163 177 230 172 238 -9 14 17 69
29 61 5 -3 7 -2 4 4 -7 11 21 55 31 49 4 -2 7 7 7 20 0 13 0 24 -1 24 0 0 -21
-33 -46 -72z m-78 -158 c-6 -11 -13 -20 -16 -20 -2 0 0 9 6 20 6 11 13 20 16
20 2 0 0 -9 -6 -20z"/>
<path d="M2077 2027 c-9 -13 -23 -32 -32 -41 -9 -9 -13 -16 -8 -16 11 0 66 70
60 76 -2 3 -11 -6 -20 -19z"/>
<path d="M2920 1990 c0 -5 14 -24 31 -42 l30 -33 -27 43 c-27 43 -34 49 -34
32z"/>
<path d="M2875 1865 c27 -38 53 -75 59 -80 6 -6 8 -6 4 -1 -12 16 -9 28 5 20
6 -4 9 -4 5 0 -3 4 -9 6 -12 4 -11 -6 -66 80 -60 95 3 8 1 18 -5 22 -7 4 -8
-1 -4 -12 6 -16 4 -16 -17 2 -14 12 -4 -9 25 -50z"/>
<path d="M3012 1862 c18 -28 37 -51 41 -51 9 -1 -52 87 -66 96 -5 3 6 -18 25
-45z"/>
<path d="M3072 1775 c12 -14 23 -25 25 -25 2 0 -4 11 -13 25 -9 14 -20 25 -25
25 -5 0 1 -11 13 -25z"/>
<path d="M2931 1724 c-12 -20 -19 -39 -16 -42 6 -7 6 -6 28 41 21 47 15 48
-12 1z"/>
<path d="M3100 1731 c0 -7 9 -21 20 -33 10 -12 17 -25 14 -30 -3 -5 -1 -7 4
-6 5 2 19 -8 32 -22 14 -16 12 -11 -6 15 -48 70 -64 88 -64 76z"/>
<path d="M2843 1558 c-126 -234 -216 -411 -205 -404 21 12 22 -12 1 -35 l-20
-24 6 23 c4 12 4 22 1 22 -9 0 -47 -80 -39 -80 5 0 3 -4 -3 -8 -5 -4 -27 -38
-48 -77 -51 -92 -39 -79 89 105 60 85 149 212 199 283 50 70 96 136 102 147 6
11 19 29 29 40 14 16 15 19 3 15 -8 -3 -24 -21 -34 -39 -32 -57 -147 -216
-156 -216 -4 0 -7 -4 -5 -9 4 -15 -86 -132 -95 -123 -8 8 86 203 158 328 40
71 84 158 80 161 -1 2 -30 -48 -63 -109z m-178 -388 c3 -5 1 -10 -4 -10 -6 0
-11 5 -11 10 0 6 2 10 4 10 3 0 8 -4 11 -10z m-59 -98 c-18 -16 -18 -16 -6 6
6 13 14 21 18 18 3 -4 -2 -14 -12 -24z"/>
<path d="M2997 1620 c-8 -11 -16 -18 -19 -15 -2 3 -5 -2 -5 -10 0 -21 3 -19
27 15 12 17 19 30 16 30 -3 0 -11 -9 -19 -20z"/>
<path d="M3030 1626 c0 -15 51 -98 57 -92 4 3 -1 14 -9 23 -9 10 -23 32 -31
48 -9 17 -16 26 -17 21z"/>
<path d="M3207 1585 c43 -71 219 -324 225 -325 8 0 -206 317 -229 340 -9 10
-8 4 4 -15z"/>
<path d="M3837 1574 c9 -15 19 -21 21 -15 6 19 -6 41 -23 41 -14 0 -13 -3 2
-26z"/>
<path d="M3110 1489 c12 -16 24 -28 27 -25 3 3 -2 12 -11 21 -9 9 -16 21 -16
26 0 5 -5 9 -11 9 -6 0 -1 -14 11 -31z"/>
<path d="M579 1318 c-175 -221 -292 -385 -278 -393 5 -4 8 -3 7 2 -5 15 37 60
52 56 12 -4 13 -3 1 5 -11 8 -4 24 36 81 28 39 53 67 57 63 4 -4 6 -2 4 3 -4
14 72 106 83 99 5 -3 7 1 4 8 -7 18 86 133 95 118 5 -8 23 17 47 64 22 42 40
76 39 76 -1 0 -67 -82 -147 -182z m81 71 c-7 -11 -14 -18 -17 -15 -3 3 0 12 7
21 18 21 23 19 10 -6z"/>
<path d="M3180 1402 c0 -21 205 -282 386 -492 103 -119 254 -289 254 -287 0 8
-116 218 -178 322 -65 110 -176 281 -195 300 -14 14 -1 -8 52 -88 79 -118 120
-191 114 -201 -3 -5 -2 -7 3 -3 9 5 149 -232 141 -240 -5 -4 -249 274 -308
352 -13 17 -26 32 -29 35 -3 3 -36 43 -73 90 -37 47 -81 102 -98 123 -16 20
-27 42 -24 47 4 6 1 9 -6 8 -7 -2 -18 8 -26 22 -7 14 -13 19 -13 12z"/>
<path d="M610 1304 c-12 -19 -20 -38 -17 -40 3 -3 15 12 27 35 25 50 19 54
-10 5z"/>
<path d="M550 1193 c-108 -203 -167 -296 -182 -287 -6 4 -8 3 -4 -4 7 -11 -16
-57 -66 -131 -16 -24 -27 -45 -25 -48 8 -7 235 364 292 477 35 69 22 63 -15
-7z"/>
<path d="M252 878 c-15 -24 -45 -68 -68 -98 -59 -80 -82 -118 -63 -103 9 7 19
10 23 6 4 -4 4 0 1 8 -4 10 9 35 33 65 21 27 54 73 74 101 19 29 38 50 43 45
5 -4 5 -1 1 6 -11 18 -14 16 -44 -30z"/>
<path d="M398 693 c68 -2 176 -2 240 0 64 1 9 3 -123 3 -132 0 -185 -2 -117
-3z"/>
<path d="M990 680 c107 -4 286 -15 398 -24 111 -10 210 -15 220 -13 11 3 8 5
-8 6 -14 1 -140 10 -280 21 -140 11 -316 19 -390 18 -132 -1 -131 -1 60 -8z"/>
<path d="M70 620 c-17 -22 -28 -40 -23 -40 8 0 68 80 59 80 -2 0 -19 -18 -36
-40z"/>
<path d="M1640 630 c8 -5 40 -9 70 -9 42 1 49 3 30 9 -38 12 -119 12 -100 0z"/>
<path d="M1568 613 c12 -2 32 -2 45 0 12 2 2 4 -23 4 -25 0 -35 -2 -22 -4z"/>
<path d="M1418 603 c23 -2 61 -2 85 0 23 2 4 4 -43 4 -47 0 -66 -2 -42 -4z"/>
<path d="M1183 593 c37 -2 96 -2 130 0 34 2 4 3 -68 3 -71 0 -99 -1 -62 -3z"/>
<path d="M88 583 c12 -2 32 -2 45 0 12 2 2 4 -23 4 -25 0 -35 -2 -22 -4z"/>
<path d="M393 583 c131 -2 343 -2 470 0 128 1 21 2 -238 2 -259 0 -363 -1
-232 -2z"/>
</g>
</svg>
