<?xml version="1.0" standalone="no"?>
<!DOCTYPE svg PUBLIC "-//W3C//DTD SVG 20010904//EN"
 "http://www.w3.org/TR/2001/REC-SVG-20010904/DTD/svg10.dtd">
<svg version="1.0" xmlns="http://www.w3.org/2000/svg"
 width="225.000000pt" height="225.000000pt" viewBox="0 0 225.000000 225.000000"
 preserveAspectRatio="xMidYMid meet">

<g transform="translate(0.000000,225.000000) scale(0.100000,-0.100000)"
fill="#000000" stroke="none">
<path d="M795 1940 c-13 -6 -5 -7 25 -3 25 3 47 7 49 9 9 8 -55 2 -74 -6z"/>
<path d="M1305 1937 c-56 -22 -74 -37 -102 -84 -96 -165 78 -354 252 -274 95
43 137 142 104 242 -33 97 -157 154 -254 116z"/>
<path d="M890 1933 c8 -3 24 -10 35 -15 20 -9 20 -9 1 6 -11 9 -27 16 -35 15
-14 0 -14 -1 -1 -6z"/>
<path d="M703 1888 c-11 -13 -24 -30 -28 -38 -8 -16 -6 -14 34 33 14 15 22 27
19 27 -2 0 -14 -10 -25 -22z"/>
<path d="M970 1888 c25 -24 38 -29 25 -9 -3 6 -16 16 -28 22 -20 11 -20 9 3
-13z"/>
<path d="M1005 1842 c4 -8 11 -26 15 -40 7 -22 8 -23 9 -6 1 11 -6 29 -15 40
-8 10 -12 13 -9 6z"/>
<path d="M656 1814 c-8 -22 -7 -107 2 -121 4 -6 7 22 7 63 0 41 -1 74 -1 74
-1 0 -5 -7 -8 -16z"/>
<path d="M1031 1754 c0 -11 3 -14 6 -6 3 7 2 16 -1 19 -3 4 -6 -2 -5 -13z"/>
<path d="M1021 1715 c-1 -11 -12 -39 -26 -63 -13 -23 -20 -40 -14 -37 17 11
50 86 46 103 -4 13 -5 13 -6 -3z"/>
<path d="M678 1655 c6 -11 21 -29 34 -40 22 -19 22 -19 -2 10 -40 48 -43 51
-32 30z"/>
<path d="M934 1594 c-18 -14 -18 -15 4 -4 12 6 22 13 22 15 0 8 -5 6 -26 -11z"/>
<path d="M747 1589 c7 -7 15 -10 18 -7 3 3 -2 9 -12 12 -14 6 -15 5 -6 -5z"/>
<path d="M845 1570 l-40 -7 35 -1 c19 0 44 3 55 8 24 10 7 10 -50 0z"/>
<path d="M1366 1433 c-13 -21 -78 -125 -145 -231 l-121 -193 0 -167 c-1 -154
-2 -165 -16 -139 -8 15 -17 27 -20 27 -3 0 3 -15 13 -32 11 -18 23 -33 28 -33
6 0 73 95 150 212 77 117 143 212 148 213 4 0 7 -151 7 -335 l0 -335 115 0
115 0 -2 523 -3 522 -122 3 -122 3 -25 -38z"/>
<path d="M580 940 l0 -520 110 0 110 0 0 335 c0 184 3 335 7 335 4 0 18 -12
31 -27 l24 -28 -22 33 c-12 18 -27 31 -34 29 -8 -3 -12 -97 -14 -335 l-2 -332
-100 0 -100 0 0 510 0 509 123 4 122 3 -127 2 -128 2 0 -520z"/>
<path d="M850 1409 c0 -3 11 -20 25 -39 14 -19 25 -30 25 -24 -1 10 -50 73
-50 63z"/>
<path d="M961 1232 c17 -29 34 -52 36 -52 7 0 -41 81 -55 92 -7 7 1 -12 19
-40z"/>
<path d="M1010 1150 c6 -11 13 -20 16 -20 2 0 0 9 -6 20 -6 11 -13 20 -16 20
-2 0 0 -9 6 -20z"/>
<path d="M1051 1090 c29 -45 29 -45 29 -34 0 5 -12 23 -26 39 l-26 30 23 -35z"/>
<path d="M930 920 c12 -16 24 -30 26 -30 3 0 -4 14 -16 30 -12 17 -24 30 -26
30 -3 0 4 -13 16 -30z"/>
<path d="M999 812 c5 -10 18 -25 27 -33 11 -9 9 -2 -6 19 -26 35 -36 42 -21
14z"/>
</g>
</svg>
